# xmcd CD database file
#
# Track frame offsets:
#	150
#	20072
#	37248
#	56353
#	74079
#	92575
#	109467
#	131437
#	146160
#	166012
#	184583
#	202442
#
# Disc length: 2948 seconds
#
# Revision: 0
# Processed by: cddbd v1.5.2PL0 Copyright (c) Steve Scherf et al.
# Submitted via: CDex 1.51
#
DISCID=ba0b820c
DTITLE=Randy Rogers Band - Just A Matter Of Time
DYEAR=2010
DGENRE=Country
TTITLE0=Better Off Wrong
TTITLE1=Kiss Me In The Dark
TTITLE2=One More Goodbye
TTITLE3=Just A Matter Of Time
TTITLE4=You Could've Left Me
TTITLE5=You Could Change My Mind
TTITLE6=Before I Believe It's True
TTITLE7=You Start Over Your Way
TTITLE8=If Anyone Asks
TTITLE9=You Don't Know Me
TTITLE10=If I Told You The Truth
TTITLE11=Whiskey's Got A Hold On Me
EXTD=YEAR: 2010
EXTT0=
EXTT1=
EXTT2=
EXTT3=
EXTT4=
EXTT5=
EXTT6=
EXTT7=
EXTT8=
EXTT9=
EXTT10=
EXTT11=
PLAYORDER=
